<svg width="50" height="50" viewBox="0 0 50 50" fill="none" xmlns="http://www.w3.org/2000/svg">
<path d="M32.5 22.5H27.5V12.5C27.5 11.837 27.2366 11.2011 26.7678 10.7322C26.2989 10.2634 25.663 10 25 10C24.337 10 23.7011 10.2634 23.2322 10.7322C22.7634 11.2011 22.5 11.837 22.5 12.5V25C22.5 25.663 22.7634 26.2989 23.2322 26.7678C23.7011 27.2366 24.337 27.5 25 27.5H32.5C33.163 27.5 33.7989 27.2366 34.2678 26.7678C34.7366 26.2989 35 25.663 35 25C35 24.337 34.7366 23.7011 34.2678 23.2322C33.7989 22.7634 33.163 22.5 32.5 22.5ZM25 0C20.0555 0 15.222 1.46622 11.1108 4.21326C6.99953 6.96029 3.79521 10.8648 1.90302 15.4329C0.0108321 20.0011 -0.484251 25.0277 0.480379 29.8772C1.44501 34.7268 3.82603 39.1813 7.32234 42.6777C10.8187 46.174 15.2732 48.555 20.1228 49.5196C24.9723 50.4842 29.9989 49.9892 34.5671 48.097C39.1352 46.2048 43.0397 43.0005 45.7867 38.8892C48.5338 34.778 50 29.9445 50 25C49.9926 18.3718 47.3563 12.0173 42.6695 7.33047C37.9827 2.64366 31.6282 0.00737145 25 0ZM25 45C21.0444 45 17.1776 43.827 13.8886 41.6294C10.5996 39.4318 8.03617 36.3082 6.52242 32.6537C5.00867 28.9991 4.6126 24.9778 5.38431 21.0982C6.15601 17.2186 8.06082 13.6549 10.8579 10.8579C13.6549 8.06081 17.2186 6.156 21.0982 5.38429C24.9778 4.61259 28.9992 5.00866 32.6537 6.52241C36.3082 8.03616 39.4318 10.5996 41.6294 13.8886C43.827 17.1776 45 21.0444 45 25C44.9939 30.3025 42.8848 35.386 39.1354 39.1354C35.386 42.8848 30.3025 44.9939 25 45Z" fill="black"/>
</svg>
