<svg width="228" height="230" viewBox="0 0 228 230" fill="none" xmlns="http://www.w3.org/2000/svg">
<path d="M17.282 0C7.8259 0 0 5.79719 0 12.8016V17.0438C0 22.7018 5.13758 27.5094 12.0828 29.171L46.0517 226.257C46.2224 227.293 46.9013 228.247 47.9591 228.937C49.017 229.627 50.3803 230.005 51.7899 230H178.255C179.657 229.997 181.009 229.615 182.058 228.926C183.106 228.237 183.778 227.288 183.948 226.257L217.928 29.171C224.876 27.515 230 22.7087 230 17.0438V12.8016C230 5.79719 222.219 0 212.763 0H17.282ZM17.282 8.51772H212.763C216.048 8.51772 218.501 10.3685 218.501 12.8016V17.0438C218.501 19.4526 216.088 21.2659 212.853 21.3021C212.617 21.2968 212.38 21.3022 212.145 21.3184H18.259C17.8516 21.264 17.4374 21.2425 17.0237 21.254C16.9789 21.2565 16.934 21.2596 16.8892 21.2629C13.8143 21.118 11.5104 19.3737 11.5104 17.0453V12.8031C11.5104 10.37 13.9974 8.51772 17.282 8.51772ZM23.7951 29.8366H206.205L201.073 59.6397H28.9381L23.7951 29.8366ZM30.3979 68.1574H199.613L197.412 80.9257H103.602C102.1 80.9509 100.671 81.4104 99.6202 82.2063C98.5698 83.0022 97.9817 84.071 97.9817 85.184C97.9817 86.2971 98.5698 87.3664 99.6202 88.1623C100.671 88.9582 102.1 89.4177 103.602 89.4429H195.953L182.017 170.36H48.0168L34.07 89.4429H58.2355C59.0015 89.4558 59.7632 89.3554 60.476 89.1472C61.1887 88.9389 61.8381 88.6273 62.386 88.2306C62.9339 87.8338 63.3692 87.3596 63.6664 86.8365C63.9636 86.3134 64.1167 85.7516 64.1167 85.184C64.1167 84.6165 63.9636 84.0552 63.6664 83.5321C63.3692 83.009 62.9339 82.5347 62.386 82.138C61.8381 81.7413 61.1887 81.4296 60.476 81.2214C59.7632 81.0131 59.0015 80.9128 58.2355 80.9257H32.5989L30.3979 68.1574ZM74.7427 80.9257C73.2404 80.9509 71.8112 81.4104 70.7608 82.2063C69.7103 83.0022 69.1222 84.071 69.1222 85.184C69.1222 86.2971 69.7103 87.3664 70.7608 88.1623C71.8112 88.9582 73.2404 89.4177 74.7427 89.4429H86.4549C87.2209 89.4558 87.9826 89.3554 88.6954 89.1472C89.4081 88.9389 90.0575 88.6273 90.6054 88.2306C91.1533 87.8338 91.5886 87.3596 91.8858 86.8365C92.183 86.3134 92.3361 85.7516 92.3361 85.184C92.3361 84.6165 92.183 84.0552 91.8858 83.5321C91.5886 83.009 91.1533 82.5347 90.6054 82.138C90.0575 81.7413 89.4081 81.4296 88.6954 81.2214C87.9826 81.0131 87.2209 80.9128 86.4549 80.9257H74.7427ZM49.4879 178.886H180.546L176.885 200.163H53.1599L49.4879 178.886ZM54.6309 208.689H175.414L173.213 221.482H56.8319L54.6309 208.689Z" fill="black"/>
</svg>
