<svg width="66" height="46" viewBox="0 0 66 46" fill="none" xmlns="http://www.w3.org/2000/svg">
<path d="M55.75 32.75C57.5375 32.75 59 34.2125 59 36C59 37.7875 57.5375 39.25 55.75 39.25C53.9625 39.25 52.5 37.7875 52.5 36C52.5 34.2125 53.9625 32.75 55.75 32.75ZM55.75 26.25C50.355 26.25 46 30.605 46 36C46 41.395 50.355 45.75 55.75 45.75C61.145 45.75 65.5 41.395 65.5 36C65.5 30.605 61.145 26.25 55.75 26.25ZM26.5 3.5H10.25V10H26.5V3.5ZM49.25 0.25H39.5V6.75H49.25V15.3625L37.875 29.5H26.5V13.25H13.5C6.3175 13.25 0.5 19.0675 0.5 26.25V36H7C7 41.395 11.355 45.75 16.75 45.75C22.145 45.75 26.5 41.395 26.5 36H41.125L55.75 17.6375V6.75C55.75 5.02609 55.0652 3.37279 53.8462 2.15381C52.6272 0.934819 50.9739 0.25 49.25 0.25ZM16.75 39.25C14.9625 39.25 13.5 37.7875 13.5 36H20C20 37.7875 18.5375 39.25 16.75 39.25Z" fill="white"/>
</svg>
