<svg width="64" height="58" viewBox="0 0 64 58" fill="none" xmlns="http://www.w3.org/2000/svg">
<g filter="url(#filter0_d_2013_42)">
<path d="M51.7538 21.1538C51.7525 19.0895 51.1802 17.0633 50.0964 15.2864C49.0126 13.5096 47.457 12.0473 45.5919 11.0519C46.9973 9.63045 47.7836 7.73842 47.7874 5.76923H43.8209C43.8209 6.78929 43.403 7.76758 42.6592 8.48887C41.9153 9.21017 40.9065 9.61538 39.8545 9.61538C36.7377 9.61939 33.7468 10.8083 31.5239 12.9267C29.301 15.0452 28.0233 17.9244 27.9651 20.9462C25.4224 18.4348 23.9951 15.0578 23.9888 11.5385C23.9836 9.83771 23.3967 8.18669 22.32 6.84408C21.2433 5.50147 19.7378 4.54314 18.0392 4.11923V0H14.0727V4.11923C12.3742 4.54314 10.8686 5.50147 9.79191 6.84408C8.71524 8.18669 8.12832 9.83771 8.1231 11.5385V21.1538H4.15668V23.0769C4.15668 30.2174 7.08191 37.0654 12.2888 42.1144C17.4958 47.1635 24.5579 50 31.9217 50C39.2854 50 46.3475 47.1635 51.5545 42.1144C56.7614 37.0654 59.6866 30.2174 59.6866 23.0769V21.1538H51.7538ZM39.8545 13.4615C41.9576 13.4641 43.9738 14.2753 45.461 15.7174C46.9481 17.1594 47.7847 19.1145 47.7874 21.1538H31.9217C31.9243 19.1145 32.7609 17.1594 34.248 15.7174C35.7352 14.2753 37.7514 13.4641 39.8545 13.4615ZM12.0895 11.5385C12.0895 10.5184 12.5074 9.54011 13.2513 8.81882C13.9951 8.09753 15.004 7.69231 16.056 7.69231C17.1079 7.69231 18.1168 8.09753 18.8606 8.81882C19.6045 9.54011 20.0224 10.5184 20.0224 11.5385C20.0314 14.9645 21.0888 18.311 23.0607 21.1538H12.0895V11.5385ZM31.9217 46.1538C25.9555 46.1462 20.2094 43.969 15.8185 40.0523C11.4275 36.1356 8.71131 30.7645 8.2064 25H55.6389C55.134 30.7648 52.4174 36.1362 48.0261 40.0529C43.6348 43.9697 37.8881 46.1467 31.9217 46.1538Z" fill="black"/>
</g>
<defs>
<filter id="filter0_d_2013_42" x="0.156677" y="0" width="63.53" height="58" filterUnits="userSpaceOnUse" color-interpolation-filters="sRGB">
<feFlood flood-opacity="0" result="BackgroundImageFix"/>
<feColorMatrix in="SourceAlpha" type="matrix" values="0 0 0 0 0 0 0 0 0 0 0 0 0 0 0 0 0 0 127 0" result="hardAlpha"/>
<feOffset dy="4"/>
<feGaussianBlur stdDeviation="2"/>
<feComposite in2="hardAlpha" operator="out"/>
<feColorMatrix type="matrix" values="0 0 0 0 0 0 0 0 0 0 0 0 0 0 0 0 0 0 0.25 0"/>
<feBlend mode="normal" in2="BackgroundImageFix" result="effect1_dropShadow_2013_42"/>
<feBlend mode="normal" in="SourceGraphic" in2="effect1_dropShadow_2013_42" result="shape"/>
</filter>
</defs>
</svg>
